  <svg id="logo" viewBox="0 0 80 28" xmlns="http://www.w3.org/2000/svg">
        <path
            d="M66.2734 0.75C73.7244 0.750162 79.75 6.68423 79.75 14C79.75 21.3158 73.7244 27.2498 66.2734 27.25C58.8222 27.25 52.79 21.3157 52.79 14C52.79 6.68427 58.8222 0.75 66.2734 0.75ZM13.7334 0.75C21.1842 0.750218 27.21 6.69021 27.21 14C27.21 21.3096 21.1844 27.2439 13.7334 27.2441C6.282 27.2441 0.25 21.3156 0.25 14C0.25 6.68427 6.28215 0.75 13.7334 0.75ZM51.6074 1.51465L44.7725 13.8486L44.7061 13.9697L44.7725 14.0908L51.6084 26.4365H31.1787V1.51465H51.6074Z"
            fill="url(#paint0_linear_126_2913)" stroke="url(#paint1_linear_126_2913)" stroke-width="0.5" />
        <defs>
            <linearGradient id="paint0_linear_126_2913" x1="0" y1="18.1265" x2="80" y2="18.1265"
                gradientUnits="userSpaceOnUse">
                <stop offset="0.15" stop-color="#E41219" />
                <stop offset="0.85" stop-color="#E6087F" />
            </linearGradient>
            <linearGradient id="paint1_linear_126_2913" x1="16.1111" y1="-3.82" x2="72.4371" y2="31.6243"
                gradientUnits="userSpaceOnUse">
                <stop stop-color="white" stop-opacity="0.5" />
                <stop offset="1" stop-color="white" stop-opacity="0" />
            </linearGradient>
        </defs>
    </svg>