<svg xmlns="http://www.w3.org/2000/svg" style="display: none;">
    <svg id="logo" viewBox="0 0 80 28">
        <path
            d="M66.2734 0.75C73.7244 0.750162 79.75 6.68423 79.75 14C79.75 21.3158 73.7244 27.2498 66.2734 27.25C58.8222 27.25 52.79 21.3157 52.79 14C52.79 6.68427 58.8222 0.75 66.2734 0.75ZM13.7334 0.75C21.1842 0.750218 27.21 6.69021 27.21 14C27.21 21.3096 21.1844 27.2439 13.7334 27.2441C6.282 27.2441 0.25 21.3156 0.25 14C0.25 6.68427 6.28215 0.75 13.7334 0.75ZM51.6074 1.51465L44.7725 13.8486L44.7061 13.9697L44.7725 14.0908L51.6084 26.4365H31.1787V1.51465H51.6074Z"
            fill="url(#paint0_linear_126_2913)" stroke="url(#paint1_linear_126_2913)" stroke-width="0.5" />
        <defs>
            <linearGradient id="paint0_linear_126_2913" x1="0" y1="18.1265" x2="80" y2="18.1265"
                gradientUnits="userSpaceOnUse">
                <stop offset="0.15" stop-color="#E41219" />
                <stop offset="0.85" stop-color="#E6087F" />
            </linearGradient>
            <linearGradient id="paint1_linear_126_2913" x1="16.1111" y1="-3.82" x2="72.4371" y2="31.6243"
                gradientUnits="userSpaceOnUse">
                <stop stop-color="white" stop-opacity="0.5" />
                <stop offset="1" stop-color="white" stop-opacity="0" />
            </linearGradient>
        </defs>
    </svg>
    <svg viewBox="0 0 24 24" id="phone">
        <g opacity="0.5" clip-path="url(#clip0_126_2926)">
            <path
                d="M21 16.42V19.956C21.0001 20.2092 20.9042 20.453 20.7316 20.6382C20.559 20.8234 20.3226 20.9363 20.07 20.954C19.633 20.984 19.276 21 19 21C10.163 21 3 13.837 3 5C3 4.724 3.015 4.367 3.046 3.93C3.06372 3.67744 3.17658 3.44101 3.3618 3.26841C3.54703 3.09581 3.79082 2.99989 4.044 3H7.58C7.70404 2.99987 7.8237 3.04586 7.91573 3.12902C8.00776 3.21218 8.0656 3.32658 8.078 3.45C8.101 3.68 8.122 3.863 8.142 4.002C8.34073 5.38892 8.748 6.73783 9.35 8.003C9.445 8.203 9.383 8.442 9.203 8.57L7.045 10.112C8.36445 13.1865 10.8145 15.6365 13.889 16.956L15.429 14.802C15.4919 14.714 15.5838 14.6509 15.6885 14.6237C15.7932 14.5964 15.9042 14.6068 16.002 14.653C17.267 15.2539 18.6156 15.6601 20.002 15.858C20.141 15.878 20.324 15.9 20.552 15.922C20.6752 15.9346 20.7894 15.9926 20.8724 16.0846C20.9553 16.1766 21.0012 16.2961 21.001 16.42H21Z"
                fill="inherit" />
        </g>
        <defs>
            <clipPath id="clip0_126_2926">
                <rect width="24" height="24" fill="white" />
            </clipPath>
        </defs>
    </svg>
    <svg viewBox="0 0 24 24" id="add-circle-filled">
        <g clip-path="url(#clip0_126_2929)">
            <path
                d="M12 22C6.477 22 2 17.523 2 12C2 6.477 6.477 2 12 2C17.523 2 22 6.477 22 12C22 17.523 17.523 22 12 22ZM11 11H7V13H11V17H13V13H17V11H13V7H11V11Z"
                fill="inherit" />
        </g>
        <defs>
            <clipPath id="clip0_126_2929">
                <rect width="24" height="24" fill="white" />
            </clipPath>
        </defs>
    </svg>
    <svg viewBox="0 0 24 24" id="menu">
        <line x1="3" y1="6.5" x2="21" y2="6.5" stroke="inherit" />
        <line x1="3" y1="11.5" x2="21" y2="11.5" stroke="inherit" />
        <line x1="3" y1="16.5" x2="21" y2="16.5" stroke="inherit" />
    </svg>
    <svg id="vk" viewBox="0 0 24 24">
        <path
            d="M12.8573 18.0217C6.36133 18.0217 2.65467 13.5044 2.5 5.98438H5.75333C5.86 11.5044 8.26 13.8404 10.1613 14.323V5.98438H13.228V10.7444C15.1027 10.539 17.076 8.37104 17.74 5.98438H20.8093C20.2973 8.92304 18.1587 11.0937 16.6387 11.9844C18.1587 12.707 20.5933 14.5977 21.5187 18.0217H18.148C17.4227 15.7337 15.6147 13.9604 13.2307 13.7204V18.0217H12.8573Z"
            fill="inherit" />
    </svg>
    <svg id="youtube" viewBox="0 0 24 24">
        <path fill-rule="evenodd" clip-rule="evenodd"
            d="M10.0469 14.3817V9.22799C11.9679 10.0889 13.4558 10.9205 15.2155 11.8172C13.7641 12.5837 11.9679 13.4439 10.0469 14.3817ZM20.7529 6.66481C20.4216 6.24901 19.8568 5.92535 19.2555 5.81819C17.4881 5.49856 6.4622 5.49765 4.69579 5.81819C4.2136 5.90428 3.78424 6.11237 3.41539 6.43567C1.86126 7.80946 2.34825 15.1766 2.72286 16.37C2.88038 16.8865 3.08402 17.2591 3.34048 17.5036C3.67091 17.8269 4.12331 18.0495 4.64295 18.1493C6.09815 18.436 13.5951 18.5963 19.2247 18.1924C19.7434 18.1063 20.2025 17.8765 20.5647 17.5395C22.0016 16.1712 21.9036 8.39029 20.7529 6.66481Z"
            fill="inherit" />
    </svg>
    <svg id="telegram" viewBox="0 0 24 24">
        <path
            d="M1.81663 11.403C1.81663 11.403 10.9766 7.50607 14.1534 6.13386C15.3713 5.58502 19.5012 3.82858 19.5012 3.82858C19.5012 3.82858 21.4073 3.06021 21.2484 4.92634C21.1955 5.69479 20.7719 8.38422 20.3483 11.2933C19.7129 15.4098 19.0246 19.9105 19.0246 19.9105C19.0246 19.9105 18.9187 21.173 18.0186 21.3925C17.1185 21.6121 15.6359 20.6241 15.3713 20.4045C15.1594 20.2399 11.4002 17.7699 10.0235 16.5624C9.65287 16.2331 9.22931 15.5745 10.0764 14.8061C11.9826 12.9948 14.2593 10.7444 15.6359 9.31736C16.2713 8.65868 16.9067 7.12185 14.2593 8.98798C10.5001 11.6775 6.79372 14.2023 6.79372 14.2023C6.79372 14.2023 5.94653 14.7511 4.35812 14.2571C2.76963 13.7632 0.916461 13.1045 0.916461 13.1045C0.916461 13.1045 -0.35421 12.2812 1.81663 11.403Z"
            fill="inherit" />
    </svg>
    <svg id="arrow-right-up" viewBox="0 0 24 24">
        <g clip-path="url(#clip0_126_1387)">
            <path
                d="M13.0505 12.3601L7.39447 18.0181L5.98047 16.6031L11.6375 10.9471L6.68747 5.99707H18.0005V17.3101L13.0505 12.3601Z"
                fill="inherit" />
        </g>
        <defs>
            <clipPath id="clip0_126_1387">
                <rect width="24" height="24" fill="white" />
            </clipPath>
        </defs>
    </svg>
    <svg id="arrow-left" viewBox="0 0 24 24">
        <g clip-path="url(#clip0_126_1750)">
            <path
                d="M10.828 12.0002L15.778 16.9502L14.364 18.3642L8 12.0002L14.364 5.63623L15.778 7.05023L10.828 12.0002Z"
                fill="inherit" />
        </g>
        <defs>
            <clipPath id="clip0_126_1750">
                <rect width="24" height="24" fill="white" />
            </clipPath>
        </defs>
    </svg>

    <svg id="arrow-down-fill" viewBox="0 0 24 24">
        <g clip-path="url(#clip0_126_1352)">
            <path d="M12 14L8 10H16L12 14Z" fill="inherit" />
        </g>
        <defs>
            <clipPath id="clip0_126_1352">
                <rect width="24" height="24" fill="inherit" />
            </clipPath>
        </defs>
    </svg>

    <svg viewBox="0 0 24 24" id="x">
        <path d="M18 6L6 18M18 18L6 6" stroke="white" stroke-linecap="round" />
    </svg>

    <svg id="dark-check" viewBox="0 0 62 62" fill="none">
        <rect x="0.5" y="0.5" width="61" height="61" rx="30.5" stroke="url(#paint0_linear_126_8587)" />
        <path d="M38.7066 25.228L27.3279 36.6067L23.4492 32.728" stroke="white" stroke-width="2.5"
            stroke-linecap="round" stroke-linejoin="round" />
        <defs>
            <linearGradient id="paint0_linear_126_8587" x1="-14.6594" y1="-6.65727" x2="71.4816" y2="42.2299"
                gradientUnits="userSpaceOnUse">
                <stop stop-color="white" stop-opacity="0.25" />
                <stop offset="1" stop-color="white" stop-opacity="0" />
            </linearGradient>
        </defs>
    </svg>

    <svg id="colorful-check" viewBox="0 0 128 95" fill="none">
        <g filter="url(#filter0_f_126_9451)">
            <g clip-path="url(#clip0_126_9451)">
                <rect x="33.5508" y="0.771973" width="61.2876" height="61.2876" rx="30.6438" fill="#000616" />
                <g filter="url(#filter1_f_126_9451)">
                    <ellipse cx="15.3423" cy="19.5291" rx="15.3423" ry="19.5291"
                        transform="matrix(0.964728 0.263249 -0.397171 0.917744 28.4375 -1.75098)" fill="#4215AC" />
                </g>
                <g style="mix-blend-mode:color-dodge" filter="url(#filter2_f_126_9451)">
                    <ellipse cx="15.3423" cy="19.5291" rx="15.3423" ry="19.5291"
                        transform="matrix(0.964728 0.263249 -0.397171 0.917744 28.4375 -1.75098)" fill="#4215AC" />
                </g>
                <g filter="url(#filter3_f_126_9451)">
                    <ellipse cx="37.1104" cy="51.3127" rx="19.0689" ry="19.8851"
                        transform="rotate(-17.5983 37.1104 51.3127)" fill="#E6087F" />
                </g>
                <g style="mix-blend-mode:overlay" filter="url(#filter4_f_126_9451)">
                    <ellipse cx="37.1679" cy="57.2807" rx="19.0689" ry="32.8402"
                        transform="rotate(-17.5983 37.1679 57.2807)" fill="#FF5050" />
                </g>
                <g filter="url(#filter5_f_126_9451)">
                    <ellipse cx="64.5636" cy="69.2687" rx="19.0689" ry="19.8851"
                        transform="rotate(-17.5983 64.5636 69.2687)" fill="#E50D50" />
                </g>
                <g style="mix-blend-mode:plus-lighter" filter="url(#filter6_f_126_9451)">
                    <ellipse cx="73.4698" cy="75.947" rx="19.0689" ry="19.8851"
                        transform="rotate(-17.5983 73.4698 75.947)" fill="#E50D50" />
                </g>
            </g>
            <rect x="33.625" y="0.846171" width="61.1392" height="61.1392" rx="30.5696"
                stroke="url(#paint0_linear_126_9451)" stroke-width="0.148396" />
        </g>
        <g filter="url(#filter7_d_126_9451)">
            <path
                d="M64.1987 1.06836C47.2944 1.06836 33.5938 14.7171 33.5938 31.5638C33.5938 48.4104 47.2944 62.0456 64.1987 62.0456C81.103 62.0456 94.7901 48.3968 94.7901 31.5638C94.7901 14.7307 81.103 1.06836 64.1987 1.06836Z"
                fill="white" />
            <path
                d="M64.1987 1.06836C47.2944 1.06836 33.5938 14.7171 33.5938 31.5638C33.5938 48.4104 47.2944 62.0456 64.1987 62.0456C81.103 62.0456 94.7901 48.3968 94.7901 31.5638C94.7901 14.7307 81.103 1.06836 64.1987 1.06836Z"
                fill="url(#paint1_linear_126_9451)" />
        </g>
        <g filter="url(#filter8_i_126_9451)">
            <g clip-path="url(#clip1_126_9451)">
                <rect x="33.5508" y="0.771973" width="61.2876" height="61.2876" rx="30.6438" fill="#000616" />
                <g filter="url(#filter9_f_126_9451)">
                    <ellipse cx="15.3423" cy="19.5291" rx="15.3423" ry="19.5291"
                        transform="matrix(0.749933 0.661514 -0.761017 0.648732 53.5586 -7.49414)" fill="#4215AC" />
                </g>
                <g style="mix-blend-mode:color-dodge" filter="url(#filter10_f_126_9451)">
                    <ellipse cx="15.3423" cy="19.5291" rx="15.3423" ry="19.5291"
                        transform="matrix(0.749933 0.661514 -0.761017 0.648732 53.5586 -7.49414)" fill="#4215AC" />
                </g>
                <g filter="url(#filter11_f_126_9451)">
                    <ellipse cx="37.9576" cy="43.9607" rx="19.0689" ry="19.8851"
                        transform="rotate(8.55418 37.9576 43.9607)" fill="#E6087F" />
                </g>
                <g style="mix-blend-mode:overlay" filter="url(#filter12_f_126_9451)">
                    <ellipse cx="35.3821" cy="49.3435" rx="19.0689" ry="32.8402"
                        transform="rotate(8.55418 35.3821 49.3435)" fill="#FF5050" />
                </g>
                <g filter="url(#filter13_f_126_9451)">
                    <ellipse cx="54.6841" cy="72.179" rx="19.0689" ry="19.8851"
                        transform="rotate(8.55418 54.6841 72.179)" fill="#E50D50" />
                </g>
                <g style="mix-blend-mode:plus-lighter" filter="url(#filter14_f_126_9451)">
                    <ellipse cx="59.7349" cy="82.0974" rx="19.0689" ry="19.8851"
                        transform="rotate(8.55418 59.7349 82.0974)" fill="#E50D50" />
                </g>
                <path d="M72.2574 26L60.8787 37.3787L57 33.5" stroke="white" stroke-width="2.5" stroke-linecap="round"
                    stroke-linejoin="round" />
            </g>
            <rect x="33.625" y="0.846171" width="61.1392" height="61.1392" rx="30.5696"
                stroke="url(#paint2_linear_126_9451)" stroke-width="0.148396" />
        </g>
        <defs>
            <filter id="filter0_f_126_9451" x="0.606831" y="-32.172" width="127.176" height="127.175"
                filterUnits="userSpaceOnUse" color-interpolation-filters="sRGB">
                <feFlood flood-opacity="0" result="BackgroundImageFix" />
                <feBlend mode="normal" in="SourceGraphic" in2="BackgroundImageFix" result="shape" />
                <feGaussianBlur stdDeviation="16.472" result="effect1_foregroundBlur_126_9451" />
            </filter>
            <filter id="filter1_f_126_9451" x="-14.1754" y="-31.1095" width="99.3156" height="102.64"
                filterUnits="userSpaceOnUse" color-interpolation-filters="sRGB">
                <feFlood flood-opacity="0" result="BackgroundImageFix" />
                <feBlend mode="normal" in="SourceGraphic" in2="BackgroundImageFix" result="shape" />
                <feGaussianBlur stdDeviation="16.472" result="effect1_foregroundBlur_126_9451" />
            </filter>
            <filter id="filter2_f_126_9451" x="-14.1754" y="-31.1095" width="99.3156" height="102.64"
                filterUnits="userSpaceOnUse" color-interpolation-filters="sRGB">
                <feFlood flood-opacity="0" result="BackgroundImageFix" />
                <feBlend mode="normal" in="SourceGraphic" in2="BackgroundImageFix" result="shape" />
                <feGaussianBlur stdDeviation="16.472" result="effect1_foregroundBlur_126_9451" />
            </filter>
            <filter id="filter3_f_126_9451" x="-14.984" y="-1.44835" width="104.189" height="105.522"
                filterUnits="userSpaceOnUse" color-interpolation-filters="sRGB">
                <feFlood flood-opacity="0" result="BackgroundImageFix" />
                <feBlend mode="normal" in="SourceGraphic" in2="BackgroundImageFix" result="shape" />
                <feGaussianBlur stdDeviation="16.472" result="effect1_foregroundBlur_126_9451" />
            </filter>
            <filter id="filter4_f_126_9451" x="-4.9169" y="4.07626" width="84.1697" height="106.409"
                filterUnits="userSpaceOnUse" color-interpolation-filters="sRGB">
                <feFlood flood-opacity="0" result="BackgroundImageFix" />
                <feBlend mode="normal" in="SourceGraphic" in2="BackgroundImageFix" result="shape" />
                <feGaussianBlur stdDeviation="10.6845" result="effect1_foregroundBlur_126_9451" />
            </filter>
            <filter id="filter5_f_126_9451" x="24.044" y="28.0826" width="81.0389" height="82.3724"
                filterUnits="userSpaceOnUse" color-interpolation-filters="sRGB">
                <feFlood flood-opacity="0" result="BackgroundImageFix" />
                <feBlend mode="normal" in="SourceGraphic" in2="BackgroundImageFix" result="shape" />
                <feGaussianBlur stdDeviation="10.6845" result="effect1_foregroundBlur_126_9451" />
            </filter>
            <filter id="filter6_f_126_9451" x="21.3754" y="23.1859" width="104.189" height="105.522"
                filterUnits="userSpaceOnUse" color-interpolation-filters="sRGB">
                <feFlood flood-opacity="0" result="BackgroundImageFix" />
                <feBlend mode="normal" in="SourceGraphic" in2="BackgroundImageFix" result="shape" />
                <feGaussianBlur stdDeviation="16.472" result="effect1_foregroundBlur_126_9451" />
            </filter>
            <filter id="filter7_d_126_9451" x="33.0002" y="1.06836" width="62.3835" height="62.1642"
                filterUnits="userSpaceOnUse" color-interpolation-filters="sRGB">
                <feFlood flood-opacity="0" result="BackgroundImageFix" />
                <feColorMatrix in="SourceAlpha" type="matrix" values="0 0 0 0 0 0 0 0 0 0 0 0 0 0 0 0 0 0 127 0"
                    result="hardAlpha" />
                <feOffset dy="0.593585" />
                <feGaussianBlur stdDeviation="0.296792" />
                <feComposite in2="hardAlpha" operator="out" />
                <feColorMatrix type="matrix" values="0 0 0 0 0 0 0 0 0 0 0 0 0 0 0 0 0 0 0.25 0" />
                <feBlend mode="normal" in2="BackgroundImageFix" result="effect1_dropShadow_126_9451" />
                <feBlend mode="normal" in="SourceGraphic" in2="effect1_dropShadow_126_9451" result="shape" />
            </filter>
            <filter id="filter8_i_126_9451" x="33.5508" y="0.771973" width="61.2881" height="61.2876"
                filterUnits="userSpaceOnUse" color-interpolation-filters="sRGB">
                <feFlood flood-opacity="0" result="BackgroundImageFix" />
                <feBlend mode="normal" in="SourceGraphic" in2="BackgroundImageFix" result="shape" />
                <feColorMatrix in="SourceAlpha" type="matrix" values="0 0 0 0 0 0 0 0 0 0 0 0 0 0 0 0 0 0 127 0"
                    result="hardAlpha" />
                <feOffset />
                <feGaussianBlur stdDeviation="3.26472" />
                <feComposite in2="hardAlpha" operator="arithmetic" k2="-1" k3="1" />
                <feColorMatrix type="matrix"
                    values="0 0 0 0 0.901961 0 0 0 0 0.0313726 0 0 0 0 0.498039 0 0 0 0.25 0" />
                <feBlend mode="normal" in2="shape" result="effect1_innerShadow_126_9451" />
            </filter>
            <filter id="filter9_f_126_9451" x="-1.5377" y="-33.8536" width="103.48" height="98.3552"
                filterUnits="userSpaceOnUse" color-interpolation-filters="sRGB">
                <feFlood flood-opacity="0" result="BackgroundImageFix" />
                <feBlend mode="normal" in="SourceGraphic" in2="BackgroundImageFix" result="shape" />
                <feGaussianBlur stdDeviation="16.472" result="effect1_foregroundBlur_126_9451" />
            </filter>
            <filter id="filter10_f_126_9451" x="-1.5377" y="-33.8536" width="103.48" height="98.3552"
                filterUnits="userSpaceOnUse" color-interpolation-filters="sRGB">
                <feFlood flood-opacity="0" result="BackgroundImageFix" />
                <feBlend mode="normal" in="SourceGraphic" in2="BackgroundImageFix" result="shape" />
                <feGaussianBlur stdDeviation="16.472" result="effect1_foregroundBlur_126_9451" />
            </filter>
            <filter id="filter11_f_126_9451" x="-14.0768" y="-8.85313" width="104.069" height="105.628"
                filterUnits="userSpaceOnUse" color-interpolation-filters="sRGB">
                <feFlood flood-opacity="0" result="BackgroundImageFix" />
                <feBlend mode="normal" in="SourceGraphic" in2="BackgroundImageFix" result="shape" />
                <feGaussianBlur stdDeviation="16.472" result="effect1_foregroundBlur_126_9451" />
            </filter>
            <filter id="filter12_f_126_9451" x="-5.47061" y="-4.62589" width="81.7059" height="107.939"
                filterUnits="userSpaceOnUse" color-interpolation-filters="sRGB">
                <feFlood flood-opacity="0" result="BackgroundImageFix" />
                <feBlend mode="normal" in="SourceGraphic" in2="BackgroundImageFix" result="shape" />
                <feGaussianBlur stdDeviation="10.6845" result="effect1_foregroundBlur_126_9451" />
            </filter>
            <filter id="filter13_f_126_9451" x="14.2247" y="30.94" width="80.9188" height="82.4778"
                filterUnits="userSpaceOnUse" color-interpolation-filters="sRGB">
                <feFlood flood-opacity="0" result="BackgroundImageFix" />
                <feBlend mode="normal" in="SourceGraphic" in2="BackgroundImageFix" result="shape" />
                <feGaussianBlur stdDeviation="10.6845" result="effect1_foregroundBlur_126_9451" />
            </filter>
            <filter id="filter14_f_126_9451" x="7.70058" y="29.2836" width="104.069" height="105.628"
                filterUnits="userSpaceOnUse" color-interpolation-filters="sRGB">
                <feFlood flood-opacity="0" result="BackgroundImageFix" />
                <feBlend mode="normal" in="SourceGraphic" in2="BackgroundImageFix" result="shape" />
                <feGaussianBlur stdDeviation="16.472" result="effect1_foregroundBlur_126_9451" />
            </filter>
            <linearGradient id="paint0_linear_126_9451" x1="19.0598" y1="-5.8088" x2="104.211" y2="42.5167"
                gradientUnits="userSpaceOnUse">
                <stop stop-color="white" stop-opacity="0.25" />
                <stop offset="1" stop-color="white" stop-opacity="0" />
            </linearGradient>
            <linearGradient id="paint1_linear_126_9451" x1="33.5938" y1="31.5586" x2="211.88" y2="31.5586"
                gradientUnits="userSpaceOnUse">
                <stop offset="0.15" stop-color="#E41219" />
                <stop offset="0.85" stop-color="#E6087F" />
            </linearGradient>
            <linearGradient id="paint2_linear_126_9451" x1="19.0598" y1="-5.8088" x2="104.211" y2="42.5167"
                gradientUnits="userSpaceOnUse">
                <stop stop-color="white" stop-opacity="0.25" />
                <stop offset="1" stop-color="white" stop-opacity="0" />
            </linearGradient>
            <clipPath id="clip0_126_9451">
                <rect x="33.5508" y="0.771973" width="61.2876" height="61.2876" rx="30.6438" fill="white" />
            </clipPath>
            <clipPath id="clip1_126_9451">
                <rect x="33.5508" y="0.771973" width="61.2876" height="61.2876" rx="30.6438" fill="white" />
            </clipPath>
        </defs>
    </svg>


    <svg id="whatsapp" viewBox="0 0 24 24">
        <path fill-rule="evenodd" clip-rule="evenodd"
            d="M11.5979 1.00688C9.99008 1.16335 8.77768 1.5103 7.46272 2.19012C5.45528 3.228 3.8343 4.87954 2.83206 6.90819C2.44701 7.68759 2.26554 8.16532 2.06429 8.92968C1.81058 9.89304 1.73671 10.4787 1.73442 11.5445C1.73329 12.0752 1.75519 12.6511 1.78505 12.8752C2.01207 14.5789 2.54715 16.0472 3.44205 17.4218L3.74032 17.88L3.07774 19.8332C2.7133 20.9075 2.4209 21.7922 2.42794 21.7992C2.43502 21.8063 3.34648 21.5227 4.45345 21.1691C5.56046 20.8155 6.48096 20.5262 6.49908 20.5262C6.51719 20.5262 6.68808 20.6231 6.87884 20.7414C7.06959 20.8599 7.46925 21.0731 7.76698 21.2154C10.4592 22.5021 13.5368 22.6122 16.2934 21.5206C19.4168 20.2836 21.8159 17.5777 22.6722 14.3257C22.9345 13.3297 23.001 12.7837 23.001 11.6277C23.001 10.4717 22.9345 9.92573 22.6722 8.92968C21.6676 5.11469 18.6056 2.14925 14.7417 1.24942C14.0925 1.09823 13.417 1.02164 12.5973 1.00629C12.1392 0.997686 11.6895 0.997935 11.5979 1.00688ZM9.05829 5.94108C9.12725 5.9768 9.22386 6.07805 9.27303 6.16604C9.39716 6.38825 10.4095 8.82298 10.439 8.97026C10.4767 9.15867 10.2922 9.47897 9.87828 9.94369C9.44634 10.4286 9.35352 10.5843 9.39196 10.7591C9.46179 11.0764 10.4248 12.3518 11.0181 12.9126C11.9388 13.7829 13.3305 14.6094 13.9506 14.654C14.2694 14.677 14.3857 14.5869 14.8734 13.9386C15.0946 13.6446 15.3306 13.3491 15.3977 13.282C15.5584 13.1216 15.7968 13.0876 16.0642 13.187C16.4072 13.3145 18.5039 14.3341 18.6511 14.445L18.7921 14.5512L18.7688 14.9918C18.7091 16.1229 18.3118 16.7102 17.261 17.2209C16.262 17.7064 15.48 17.6931 13.949 17.1647C11.8951 16.4558 10.8049 15.7786 9.32758 14.2942C8.58838 13.5514 8.06309 12.9234 7.46226 12.0643C6.47222 10.6486 6.09254 9.5554 6.20555 8.44588C6.29616 7.55628 6.60747 6.89958 7.23619 6.27178C7.54034 5.96802 7.93833 5.84299 8.53733 5.86295C8.79146 5.87139 8.97776 5.89933 9.05829 5.94108Z"
            fill="inherit" />
    </svg>
    <svg id="wall" viewBox="0 0 1920 11486" fill="none" xmlns="http://www.w3.org/2000/svg">
        <g opacity="0.06">
            <rect width="1" height="12098" transform="translate(51 -612)" fill="white" />
            <rect width="1" height="12098" transform="translate(152 -612)" fill="white" />
            <rect width="1" height="12098" transform="translate(253 -612)" fill="white" />
            <rect width="1" height="12098" transform="translate(354 -612)" fill="white" />
            <rect width="1" height="12098" transform="translate(455 -612)" fill="white" />
            <rect width="1" height="12098" transform="translate(556 -612)" fill="white" />
            <rect width="1" height="12098" transform="translate(657 -612)" fill="white" />
            <rect width="1" height="12098" transform="translate(758 -612)" fill="white" />
            <rect width="1" height="12098" transform="translate(859 -612)" fill="white" />
            <rect width="1" height="12098" transform="translate(960 -612)" fill="white" />
            <rect width="1" height="12098" transform="translate(1061 -612)" fill="white" />
            <rect width="1" height="12098" transform="translate(1162 -612)" fill="white" />
            <rect width="1" height="12098" transform="translate(1263 -612)" fill="white" />
            <rect width="1" height="12098" transform="translate(1364 -612)" fill="white" />
            <rect width="1" height="12098" transform="translate(1465 -612)" fill="white" />
            <rect width="1" height="12098" transform="translate(1566 -612)" fill="white" />
            <rect width="1" height="12098" transform="translate(1667 -612)" fill="white" />
            <rect width="1" height="12098" transform="translate(1768 -612)" fill="white" />
            <rect width="1" height="12098" transform="translate(1869 -612)" fill="white" />
        </g>
    </svg>
</svg>