<svg xmlns="http://www.w3.org/2000/svg" style="display: none;">
    <svg id="footer-logo" viewBox="0 0 200 27" fill="none">
        <g clip-path="url(#clip0)">
            <path
                d="M41.295 27H0V0H41.295V27ZM2.541 24.429H38.753V2.572H2.541V24.429ZM177.348 19.357C176.834 18.7985 176.44 18.1409 176.189 17.4245C175.938 16.7081 175.837 15.9481 175.89 15.191V6.783H179V15C178.927 15.8822 179.13 16.7653 179.581 17.527C179.822 17.8018 180.124 18.0152 180.464 18.1493C180.804 18.2834 181.171 18.3344 181.534 18.298C181.906 18.3329 182.281 18.2815 182.63 18.1478C182.979 18.0141 183.292 17.8016 183.545 17.527C184.031 16.7363 184.249 15.8095 184.165 14.885V6.785H187.271V15.078C187.326 15.8507 187.222 16.6265 186.967 17.3578C186.711 18.0892 186.309 18.7606 185.785 19.331C185.205 19.8442 184.529 20.2371 183.796 20.487C183.063 20.7369 182.288 20.8389 181.515 20.787C180.76 20.8367 180.003 20.7359 179.288 20.4904C178.573 20.2449 177.913 19.8596 177.348 19.357V19.357ZM161.662 18.807C161.023 18.1365 160.524 17.345 160.195 16.4789C159.866 15.6129 159.714 14.6898 159.747 13.764V13.61C159.712 12.6793 159.87 11.7516 160.21 10.8846C160.55 10.0176 161.066 9.23017 161.724 8.57136C162.382 7.91255 163.169 7.39656 164.036 7.05565C164.903 6.71474 165.83 6.55622 166.761 6.59C167.689 6.55505 168.615 6.70789 169.483 7.03936C170.351 7.37082 171.142 7.87409 171.811 8.519C172.466 9.1741 172.979 9.95776 173.317 10.8207C173.655 11.6836 173.81 12.607 173.774 13.533V13.687C173.808 14.6259 173.653 15.5619 173.319 16.44C172.985 17.3182 172.479 18.1206 171.83 18.8C170.445 20.0756 168.631 20.7846 166.748 20.7864C164.865 20.7883 163.05 20.0829 161.662 18.81V18.807ZM163.977 10.282C163.261 11.2311 162.903 12.4027 162.967 13.59V13.744C162.904 14.9431 163.284 16.1234 164.034 17.061C164.372 17.4625 164.796 17.7824 165.275 17.9969C165.754 18.2115 166.275 18.3151 166.8 18.3C167.323 18.3216 167.844 18.2204 168.32 18.0043C168.797 17.7883 169.217 17.4635 169.545 17.056C170.259 16.099 170.616 14.9225 170.555 13.73V13.575C170.614 12.3976 170.256 11.2371 169.545 10.297C169.193 9.90899 168.764 9.59876 168.285 9.38614C167.806 9.17353 167.288 9.06322 166.764 9.06228C166.24 9.06134 165.722 9.16979 165.242 9.38068C164.763 9.59157 164.332 9.90026 163.979 10.287L163.977 10.282ZM134.093 18.845C132.837 17.4583 132.18 15.6319 132.263 13.763V13.61C132.228 12.6763 132.383 11.7452 132.718 10.8733C133.054 10.0014 133.564 9.20686 134.216 8.538C134.868 7.8859 135.646 7.37471 136.504 7.03616C137.361 6.69761 138.279 6.53894 139.2 6.57C140.17 6.55573 141.135 6.71594 142.049 7.043C142.903 7.36424 143.651 7.91477 144.212 8.634C144.828 9.42845 145.193 10.3888 145.26 11.392H142.192C142.159 11.0411 142.055 10.7006 141.887 10.3907C141.719 10.0809 141.49 9.80803 141.215 9.5885C140.939 9.36896 140.622 9.20725 140.282 9.11301C139.943 9.01877 139.587 8.99394 139.238 9.04C138.714 9.01626 138.191 9.11642 137.712 9.33238C137.234 9.54834 136.813 9.87402 136.484 10.283C135.772 11.2557 135.418 12.4452 135.484 13.649V13.8C135.421 14.9844 135.749 16.1568 136.418 17.136C136.759 17.5575 137.198 17.89 137.696 18.1049C138.194 18.3198 138.736 18.4108 139.277 18.37C139.716 18.4038 140.156 18.3495 140.574 18.2104C140.991 18.0713 141.376 17.8502 141.707 17.56C142.256 16.9993 142.56 16.2445 142.555 15.46H139.486V13.185H145.6V14.651C145.639 15.4721 145.508 16.2925 145.215 17.0607C144.923 17.829 144.475 18.5286 143.9 19.116C143.266 19.6941 142.524 20.1395 141.715 20.4259C140.907 20.7124 140.049 20.8342 139.193 20.784C138.255 20.8377 137.315 20.6928 136.437 20.3588C135.558 20.0249 134.76 19.5094 134.094 18.846L134.093 18.845ZM49.556 18.893C48.313 17.4824 47.6731 15.6404 47.774 13.763V13.61C47.738 12.6793 47.889 11.7508 48.2181 10.8794C48.5472 10.0081 49.0477 9.21154 49.69 8.537C50.3173 7.89001 51.0726 7.38093 51.9076 7.04224C52.7427 6.70356 53.6393 6.54272 54.54 6.57C56.0388 6.5065 57.5145 6.95549 58.724 7.843C59.2803 8.30021 59.7335 8.87005 60.0538 9.51501C60.374 10.16 60.554 10.8654 60.582 11.585H57.419C57.4123 11.2255 57.3313 10.8713 57.1811 10.5447C57.0309 10.218 56.8147 9.92594 56.5462 9.68683C56.2777 9.44772 55.9627 9.26674 55.6208 9.15525C55.279 9.04376 54.9178 9.00418 54.56 9.039C54.0653 9.02136 53.5735 9.12247 53.1259 9.33385C52.6782 9.54523 52.2877 9.86075 51.987 10.254C51.3023 11.2267 50.9664 12.4024 51.034 13.59V13.744C50.9614 14.9264 51.2902 16.0987 51.967 17.071C52.2765 17.4621 52.6749 17.7737 53.129 17.9799C53.5831 18.1862 54.0798 18.2812 54.578 18.257C55.3395 18.2904 56.0885 18.055 56.694 17.592C57.2727 17.0877 57.6345 16.3795 57.704 15.615H60.735C60.6988 16.3509 60.5114 17.0715 60.1845 17.7318C59.8576 18.3921 59.3982 18.978 58.835 19.453C57.6262 20.3758 56.1325 20.8463 54.613 20.783C53.6848 20.8409 52.7549 20.7026 51.8837 20.3772C51.0126 20.0517 50.2198 19.5463 49.557 18.894L49.556 18.893ZM23.074 18.845C21.8186 17.4581 21.1614 15.6318 21.245 13.763V13.61C21.2098 12.676 21.365 11.7447 21.7011 10.8726C22.0372 10.0004 22.5471 9.20581 23.2 8.537C23.8514 7.88533 24.6297 7.37447 25.4867 7.0361C26.3437 6.69773 27.2611 6.53909 28.182 6.57C29.1523 6.55595 30.1173 6.71615 31.031 7.043C31.8848 7.36396 32.6333 7.91455 33.194 8.634C33.8105 9.42837 34.1758 10.3887 34.243 11.392H31.174C31.1407 11.0411 31.0371 10.7004 30.8692 10.3904C30.7013 10.0804 30.4727 9.80748 30.197 9.58785C29.9212 9.36821 29.604 9.20641 29.2644 9.11211C28.9247 9.01781 28.5695 8.99294 28.22 9.039C27.6954 9.01526 27.1726 9.11542 26.694 9.33137C26.2154 9.54733 25.7943 9.873 25.465 10.282C24.753 11.2549 24.3997 12.4442 24.465 13.648V13.8C24.4012 14.9843 24.7291 16.1566 25.398 17.136C25.7394 17.5576 26.178 17.8901 26.6761 18.105C27.1742 18.3199 27.717 18.4109 28.258 18.37C28.6966 18.4038 29.1375 18.3495 29.5548 18.2104C29.9721 18.0713 30.3574 17.8502 30.688 17.56C31.2363 16.9991 31.5407 16.2443 31.535 15.46H28.468V13.185H34.586V14.651C34.6249 15.4721 34.494 16.2925 34.2014 17.0607C33.9089 17.829 33.4611 18.5286 32.886 19.116C32.2524 19.6941 31.5096 20.1395 30.7012 20.4259C29.8928 20.7124 29.0352 20.8342 28.179 20.784C27.2396 20.8384 26.2993 20.694 25.4196 20.36C24.5399 20.026 23.7406 19.5101 23.074 18.846V18.845ZM8.774 18.893C7.53099 17.4824 6.89114 15.6404 6.992 13.763V13.61C6.95493 12.6798 7.10467 11.7516 7.43238 10.8803C7.7601 10.009 8.25913 9.2122 8.9 8.537C9.52728 7.89001 10.2826 7.38093 11.1177 7.04224C11.9527 6.70356 12.8493 6.54272 13.75 6.57C15.2488 6.5065 16.7245 6.95549 17.934 7.843C18.4917 8.29935 18.9463 8.86869 19.2679 9.51352C19.5896 10.1583 19.7709 10.864 19.8 11.584H16.632C16.6251 11.2246 16.544 10.8705 16.3938 10.544C16.2435 10.2174 16.0274 9.92549 15.7589 9.68649C15.4904 9.44749 15.1754 9.26659 14.8336 9.15517C14.4919 9.04374 14.1308 9.00419 13.773 9.039C13.2783 9.02136 12.7865 9.12247 12.3389 9.33385C11.8912 9.54523 11.5007 9.86075 11.2 10.254C10.5153 11.2267 10.1798 12.4024 10.248 13.59V13.744C10.1754 14.9264 10.5042 16.0987 11.181 17.071C11.4905 17.4621 11.8888 17.7738 12.3429 17.98C12.7971 18.1863 13.2938 18.2813 13.792 18.257C14.5535 18.2902 15.3024 18.0549 15.908 17.592C16.4867 17.0877 16.8485 16.3795 16.918 15.615H19.949C19.9127 16.3509 19.7253 17.0714 19.3984 17.7317C19.0715 18.392 18.6122 18.9779 18.049 19.453C16.8405 20.3757 15.3472 20.8463 13.828 20.783C12.8995 20.8413 11.9692 20.7032 11.0976 20.3777C10.2261 20.0522 9.43299 19.5466 8.77 18.894L8.774 18.893ZM190.093 20.571V6.783H194.8C196.177 6.69153 197.541 7.08691 198.656 7.9C199.116 8.30763 199.476 8.81511 199.709 9.3835C199.942 9.95189 200.041 10.5661 200 11.179V11.256C200.041 11.8597 199.939 12.4645 199.705 13.0221C199.47 13.5796 199.107 14.0745 198.647 14.467C197.558 15.2514 196.232 15.6363 194.893 15.557H193.158V20.571H190.093ZM193.162 13.377H194.725C196.262 13.377 197.031 12.677 197.031 11.277V11.2C197.031 9.83733 196.262 9.15567 194.725 9.155H193.162V13.377ZM155.5 20.572L152.241 15.249H150.9V20.572H147.832V6.783H152.711C154.081 6.70187 155.439 7.07058 156.58 7.833C157.049 8.20314 157.421 8.68192 157.663 9.22795C157.906 9.77398 158.012 10.3709 157.972 10.967V11.044C158.021 11.8887 157.765 12.7228 157.251 13.395C156.737 14.0673 156 14.5331 155.172 14.708L158.772 20.571L155.5 20.572ZM150.9 13.128H152.635C154.186 13.128 154.961 12.4657 154.96 11.141V11.064C154.987 10.7925 154.948 10.5185 154.847 10.265C154.746 10.0116 154.586 9.78625 154.379 9.608C153.858 9.28231 153.248 9.13034 152.635 9.174H150.9V13.128ZM118.062 20.572V6.783H121.149V18.123H126.7V20.572H118.062ZM112.973 20.572L112.039 17.505H107.103L106.169 20.572H103.269L107.748 6.783H111.769L116.2 20.572H112.973ZM107.773 15.288H111.373L109.581 9.328L107.773 15.288ZM96.966 20.572V9.213H93.288V6.783H103.752V9.213H100.074V20.572H96.966ZM88.18 20.572V6.783H91.286V20.572H88.18ZM76.173 20.572V6.783H80.881C82.2585 6.69098 83.6246 7.08639 84.74 7.9C85.1994 8.30752 85.5594 8.81484 85.7924 9.38305C86.0253 9.95125 86.1251 10.5653 86.084 11.178V11.255C86.1246 11.8587 86.0234 12.4635 85.7884 13.021C85.5535 13.5786 85.1914 14.0734 84.731 14.466C83.642 15.2505 82.3158 15.6355 80.976 15.556H79.242V20.57L76.173 20.572ZM79.242 13.378H80.8C82.3373 13.378 83.106 12.678 83.106 11.278V11.2C83.106 9.83733 82.3373 9.15567 80.8 9.155H79.242V13.378ZM71.085 20.572L70.151 17.505H65.214L64.28 20.572H61.38L65.862 6.783H69.884L74.306 20.572H71.085ZM65.885 15.288H69.485L67.693 9.328L65.885 15.288Z"
                fill="white" />
        </g>
        <defs>
            <clipPath id="clip0">
                <rect width="200" height="27.001" fill="white" />
            </clipPath>
        </defs>
    </svg>
    <svg id="logo" viewBox="0 0 80 28">
        <path
            d="M66.2734 0.75C73.7244 0.750162 79.75 6.68423 79.75 14C79.75 21.3158 73.7244 27.2498 66.2734 27.25C58.8222 27.25 52.79 21.3157 52.79 14C52.79 6.68427 58.8222 0.75 66.2734 0.75ZM13.7334 0.75C21.1842 0.750218 27.21 6.69021 27.21 14C27.21 21.3096 21.1844 27.2439 13.7334 27.2441C6.282 27.2441 0.25 21.3156 0.25 14C0.25 6.68427 6.28215 0.75 13.7334 0.75ZM51.6074 1.51465L44.7725 13.8486L44.7061 13.9697L44.7725 14.0908L51.6084 26.4365H31.1787V1.51465H51.6074Z"
            fill="url(#paint0_linear_126_2913)" stroke="url(#paint1_linear_126_2913)" stroke-width="0.5" />
        <defs>
            <linearGradient id="paint0_linear_126_2913" x1="0" y1="18.1265" x2="80" y2="18.1265"
                gradientUnits="userSpaceOnUse">
                <stop offset="0.15" stop-color="#E41219" />
                <stop offset="0.85" stop-color="#E6087F" />
            </linearGradient>
            <linearGradient id="paint1_linear_126_2913" x1="16.1111" y1="-3.82" x2="72.4371" y2="31.6243"
                gradientUnits="userSpaceOnUse">
                <stop stop-color="white" stop-opacity="0.5" />
                <stop offset="1" stop-color="white" stop-opacity="0" />
            </linearGradient>
        </defs>
    </svg>
    <svg viewBox="0 0 24 24" id="phone">
        <path
            d="M21 16.42V19.956C21.0001 20.2092 20.9042 20.453 20.7316 20.6382C20.559 20.8234 20.3226 20.9363 20.07 20.954C19.633 20.984 19.276 21 19 21C10.163 21 3 13.837 3 5C3 4.724 3.015 4.367 3.046 3.93C3.06372 3.67744 3.17658 3.44101 3.3618 3.26841C3.54703 3.09581 3.79082 2.99989 4.044 3H7.58C7.70404 2.99987 7.8237 3.04586 7.91573 3.12902C8.00776 3.21218 8.0656 3.32658 8.078 3.45C8.101 3.68 8.122 3.863 8.142 4.002C8.34073 5.38892 8.748 6.73783 9.35 8.003C9.445 8.203 9.383 8.442 9.203 8.57L7.045 10.112C8.36445 13.1865 10.8145 15.6365 13.889 16.956L15.429 14.802C15.4919 14.714 15.5838 14.6509 15.6885 14.6237C15.7932 14.5964 15.9042 14.6068 16.002 14.653C17.267 15.2539 18.6156 15.6601 20.002 15.858C20.141 15.878 20.324 15.9 20.552 15.922C20.6752 15.9346 20.7894 15.9926 20.8724 16.0846C20.9553 16.1766 21.0012 16.2961 21.001 16.42H21Z"
            fill="inherit" />
        <defs>
            <clipPath id="clip0_126_2926">
                <rect width="24" height="24" fill="white" />
            </clipPath>
        </defs>
    </svg>
    <svg viewBox="0 0 24 24" id="add-circle-filled">
        <g clip-path="url(#clip0_126_2929)">
            <path
                d="M12 22C6.477 22 2 17.523 2 12C2 6.477 6.477 2 12 2C17.523 2 22 6.477 22 12C22 17.523 17.523 22 12 22ZM11 11H7V13H11V17H13V13H17V11H13V7H11V11Z"
                fill="inherit" />
        </g>
        <defs>
            <clipPath id="clip0_126_2929">
                <rect width="24" height="24" fill="white" />
            </clipPath>
        </defs>
    </svg>
    <svg viewBox="0 0 24 24" id="menu">
        <line x1="3" y1="6.5" x2="21" y2="6.5" stroke="inherit" />
        <line x1="3" y1="11.5" x2="21" y2="11.5" stroke="inherit" />
        <line x1="3" y1="16.5" x2="21" y2="16.5" stroke="inherit" />
    </svg>
    <svg id="vk" viewBox="0 0 24 24">
        <path
            d="M12.8573 18.0217C6.36133 18.0217 2.65467 13.5044 2.5 5.98438H5.75333C5.86 11.5044 8.26 13.8404 10.1613 14.323V5.98438H13.228V10.7444C15.1027 10.539 17.076 8.37104 17.74 5.98438H20.8093C20.2973 8.92304 18.1587 11.0937 16.6387 11.9844C18.1587 12.707 20.5933 14.5977 21.5187 18.0217H18.148C17.4227 15.7337 15.6147 13.9604 13.2307 13.7204V18.0217H12.8573Z"
            fill="inherit" />
    </svg>
    <svg id="youtube" viewBox="0 0 24 24">
        <path fill-rule="evenodd" clip-rule="evenodd"
            d="M10.0469 14.3817V9.22799C11.9679 10.0889 13.4558 10.9205 15.2155 11.8172C13.7641 12.5837 11.9679 13.4439 10.0469 14.3817ZM20.7529 6.66481C20.4216 6.24901 19.8568 5.92535 19.2555 5.81819C17.4881 5.49856 6.4622 5.49765 4.69579 5.81819C4.2136 5.90428 3.78424 6.11237 3.41539 6.43567C1.86126 7.80946 2.34825 15.1766 2.72286 16.37C2.88038 16.8865 3.08402 17.2591 3.34048 17.5036C3.67091 17.8269 4.12331 18.0495 4.64295 18.1493C6.09815 18.436 13.5951 18.5963 19.2247 18.1924C19.7434 18.1063 20.2025 17.8765 20.5647 17.5395C22.0016 16.1712 21.9036 8.39029 20.7529 6.66481Z"
            fill="inherit" />
    </svg>
    <svg id="telegram" viewBox="0 0 24 24">
        <path
            d="M1.81663 11.403C1.81663 11.403 10.9766 7.50607 14.1534 6.13386C15.3713 5.58502 19.5012 3.82858 19.5012 3.82858C19.5012 3.82858 21.4073 3.06021 21.2484 4.92634C21.1955 5.69479 20.7719 8.38422 20.3483 11.2933C19.7129 15.4098 19.0246 19.9105 19.0246 19.9105C19.0246 19.9105 18.9187 21.173 18.0186 21.3925C17.1185 21.6121 15.6359 20.6241 15.3713 20.4045C15.1594 20.2399 11.4002 17.7699 10.0235 16.5624C9.65287 16.2331 9.22931 15.5745 10.0764 14.8061C11.9826 12.9948 14.2593 10.7444 15.6359 9.31736C16.2713 8.65868 16.9067 7.12185 14.2593 8.98798C10.5001 11.6775 6.79372 14.2023 6.79372 14.2023C6.79372 14.2023 5.94653 14.7511 4.35812 14.2571C2.76963 13.7632 0.916461 13.1045 0.916461 13.1045C0.916461 13.1045 -0.35421 12.2812 1.81663 11.403Z"
            fill="inherit" />
    </svg>
    <svg id="arrow-right-up" viewBox="0 0 24 24">
        <g clip-path="url(#clip0_126_1387)">
            <path
                d="M13.0505 12.3601L7.39447 18.0181L5.98047 16.6031L11.6375 10.9471L6.68747 5.99707H18.0005V17.3101L13.0505 12.3601Z"
                fill="inherit" />
        </g>
        <defs>
            <clipPath id="clip0_126_1387">
                <rect width="24" height="24" fill="white" />
            </clipPath>
        </defs>
    </svg>
    <svg id="arrow-left" viewBox="0 0 24 24">
        <g clip-path="url(#clip0_126_1750)">
            <path
                d="M10.828 12.0002L15.778 16.9502L14.364 18.3642L8 12.0002L14.364 5.63623L15.778 7.05023L10.828 12.0002Z"
                fill="inherit" />
        </g>
        <defs>
            <clipPath id="clip0_126_1750">
                <rect width="24" height="24" fill="white" />
            </clipPath>
        </defs>
    </svg>

    <svg id="arrow-down-fill" viewBox="0 0 24 24">
        <g clip-path="url(#clip0_126_1352)">
            <path d="M12 14L8 10H16L12 14Z" fill="inherit" />
        </g>
        <defs>
            <clipPath id="clip0_126_1352">
                <rect width="24" height="24" fill="inherit" />
            </clipPath>
        </defs>
    </svg>

    <svg viewBox="0 0 24 24" id="x">
        <path d="M18 6L6 18M18 18L6 6" stroke="white" stroke-linecap="round" />
    </svg>

    <svg id="dark-check" viewBox="0 0 62 62" fill="none">
        <rect x="0.5" y="0.5" width="61" height="61" rx="30.5" stroke="url(#paint0_linear_126_8587)" />
        <path d="M38.7066 25.228L27.3279 36.6067L23.4492 32.728" stroke="white" stroke-width="2.5"
            stroke-linecap="round" stroke-linejoin="round" />
        <defs>
            <linearGradient id="paint0_linear_126_8587" x1="-14.6594" y1="-6.65727" x2="71.4816" y2="42.2299"
                gradientUnits="userSpaceOnUse">
                <stop stop-color="white" stop-opacity="0.25" />
                <stop offset="1" stop-color="white" stop-opacity="0" />
            </linearGradient>
        </defs>
    </svg>

    <svg id="colorful-check" viewBox="0 0 128 95" fill="none">
        <g filter="url(#filter0_f_126_9451)">
            <g clip-path="url(#clip0_126_9451)">
                <rect x="33.5508" y="0.771973" width="61.2876" height="61.2876" rx="30.6438" fill="#000616" />
                <g filter="url(#filter1_f_126_9451)">
                    <ellipse cx="15.3423" cy="19.5291" rx="15.3423" ry="19.5291"
                        transform="matrix(0.964728 0.263249 -0.397171 0.917744 28.4375 -1.75098)" fill="#4215AC" />
                </g>
                <g style="mix-blend-mode:color-dodge" filter="url(#filter2_f_126_9451)">
                    <ellipse cx="15.3423" cy="19.5291" rx="15.3423" ry="19.5291"
                        transform="matrix(0.964728 0.263249 -0.397171 0.917744 28.4375 -1.75098)" fill="#4215AC" />
                </g>
                <g filter="url(#filter3_f_126_9451)">
                    <ellipse cx="37.1104" cy="51.3127" rx="19.0689" ry="19.8851"
                        transform="rotate(-17.5983 37.1104 51.3127)" fill="#E6087F" />
                </g>
                <g style="mix-blend-mode:overlay" filter="url(#filter4_f_126_9451)">
                    <ellipse cx="37.1679" cy="57.2807" rx="19.0689" ry="32.8402"
                        transform="rotate(-17.5983 37.1679 57.2807)" fill="#FF5050" />
                </g>
                <g filter="url(#filter5_f_126_9451)">
                    <ellipse cx="64.5636" cy="69.2687" rx="19.0689" ry="19.8851"
                        transform="rotate(-17.5983 64.5636 69.2687)" fill="#E50D50" />
                </g>
                <g style="mix-blend-mode:plus-lighter" filter="url(#filter6_f_126_9451)">
                    <ellipse cx="73.4698" cy="75.947" rx="19.0689" ry="19.8851"
                        transform="rotate(-17.5983 73.4698 75.947)" fill="#E50D50" />
                </g>
            </g>
            <rect x="33.625" y="0.846171" width="61.1392" height="61.1392" rx="30.5696"
                stroke="url(#paint0_linear_126_9451)" stroke-width="0.148396" />
        </g>
        <g filter="url(#filter7_d_126_9451)">
            <path
                d="M64.1987 1.06836C47.2944 1.06836 33.5938 14.7171 33.5938 31.5638C33.5938 48.4104 47.2944 62.0456 64.1987 62.0456C81.103 62.0456 94.7901 48.3968 94.7901 31.5638C94.7901 14.7307 81.103 1.06836 64.1987 1.06836Z"
                fill="white" />
            <path
                d="M64.1987 1.06836C47.2944 1.06836 33.5938 14.7171 33.5938 31.5638C33.5938 48.4104 47.2944 62.0456 64.1987 62.0456C81.103 62.0456 94.7901 48.3968 94.7901 31.5638C94.7901 14.7307 81.103 1.06836 64.1987 1.06836Z"
                fill="url(#paint1_linear_126_9451)" />
        </g>
        <g filter="url(#filter8_i_126_9451)">
            <g clip-path="url(#clip1_126_9451)">
                <rect x="33.5508" y="0.771973" width="61.2876" height="61.2876" rx="30.6438" fill="#000616" />
                <g filter="url(#filter9_f_126_9451)">
                    <ellipse cx="15.3423" cy="19.5291" rx="15.3423" ry="19.5291"
                        transform="matrix(0.749933 0.661514 -0.761017 0.648732 53.5586 -7.49414)" fill="#4215AC" />
                </g>
                <g style="mix-blend-mode:color-dodge" filter="url(#filter10_f_126_9451)">
                    <ellipse cx="15.3423" cy="19.5291" rx="15.3423" ry="19.5291"
                        transform="matrix(0.749933 0.661514 -0.761017 0.648732 53.5586 -7.49414)" fill="#4215AC" />
                </g>
                <g filter="url(#filter11_f_126_9451)">
                    <ellipse cx="37.9576" cy="43.9607" rx="19.0689" ry="19.8851"
                        transform="rotate(8.55418 37.9576 43.9607)" fill="#E6087F" />
                </g>
                <g style="mix-blend-mode:overlay" filter="url(#filter12_f_126_9451)">
                    <ellipse cx="35.3821" cy="49.3435" rx="19.0689" ry="32.8402"
                        transform="rotate(8.55418 35.3821 49.3435)" fill="#FF5050" />
                </g>
                <g filter="url(#filter13_f_126_9451)">
                    <ellipse cx="54.6841" cy="72.179" rx="19.0689" ry="19.8851"
                        transform="rotate(8.55418 54.6841 72.179)" fill="#E50D50" />
                </g>
                <g style="mix-blend-mode:plus-lighter" filter="url(#filter14_f_126_9451)">
                    <ellipse cx="59.7349" cy="82.0974" rx="19.0689" ry="19.8851"
                        transform="rotate(8.55418 59.7349 82.0974)" fill="#E50D50" />
                </g>
                <path d="M72.2574 26L60.8787 37.3787L57 33.5" stroke="white" stroke-width="2.5" stroke-linecap="round"
                    stroke-linejoin="round" />
            </g>
            <rect x="33.625" y="0.846171" width="61.1392" height="61.1392" rx="30.5696"
                stroke="url(#paint2_linear_126_9451)" stroke-width="0.148396" />
        </g>
        <defs>
            <filter id="filter0_f_126_9451" x="0.606831" y="-32.172" width="127.176" height="127.175"
                filterUnits="userSpaceOnUse" color-interpolation-filters="sRGB">
                <feFlood flood-opacity="0" result="BackgroundImageFix" />
                <feBlend mode="normal" in="SourceGraphic" in2="BackgroundImageFix" result="shape" />
                <feGaussianBlur stdDeviation="16.472" result="effect1_foregroundBlur_126_9451" />
            </filter>
            <filter id="filter1_f_126_9451" x="-14.1754" y="-31.1095" width="99.3156" height="102.64"
                filterUnits="userSpaceOnUse" color-interpolation-filters="sRGB">
                <feFlood flood-opacity="0" result="BackgroundImageFix" />
                <feBlend mode="normal" in="SourceGraphic" in2="BackgroundImageFix" result="shape" />
                <feGaussianBlur stdDeviation="16.472" result="effect1_foregroundBlur_126_9451" />
            </filter>
            <filter id="filter2_f_126_9451" x="-14.1754" y="-31.1095" width="99.3156" height="102.64"
                filterUnits="userSpaceOnUse" color-interpolation-filters="sRGB">
                <feFlood flood-opacity="0" result="BackgroundImageFix" />
                <feBlend mode="normal" in="SourceGraphic" in2="BackgroundImageFix" result="shape" />
                <feGaussianBlur stdDeviation="16.472" result="effect1_foregroundBlur_126_9451" />
            </filter>
            <filter id="filter3_f_126_9451" x="-14.984" y="-1.44835" width="104.189" height="105.522"
                filterUnits="userSpaceOnUse" color-interpolation-filters="sRGB">
                <feFlood flood-opacity="0" result="BackgroundImageFix" />
                <feBlend mode="normal" in="SourceGraphic" in2="BackgroundImageFix" result="shape" />
                <feGaussianBlur stdDeviation="16.472" result="effect1_foregroundBlur_126_9451" />
            </filter>
            <filter id="filter4_f_126_9451" x="-4.9169" y="4.07626" width="84.1697" height="106.409"
                filterUnits="userSpaceOnUse" color-interpolation-filters="sRGB">
                <feFlood flood-opacity="0" result="BackgroundImageFix" />
                <feBlend mode="normal" in="SourceGraphic" in2="BackgroundImageFix" result="shape" />
                <feGaussianBlur stdDeviation="10.6845" result="effect1_foregroundBlur_126_9451" />
            </filter>
            <filter id="filter5_f_126_9451" x="24.044" y="28.0826" width="81.0389" height="82.3724"
                filterUnits="userSpaceOnUse" color-interpolation-filters="sRGB">
                <feFlood flood-opacity="0" result="BackgroundImageFix" />
                <feBlend mode="normal" in="SourceGraphic" in2="BackgroundImageFix" result="shape" />
                <feGaussianBlur stdDeviation="10.6845" result="effect1_foregroundBlur_126_9451" />
            </filter>
            <filter id="filter6_f_126_9451" x="21.3754" y="23.1859" width="104.189" height="105.522"
                filterUnits="userSpaceOnUse" color-interpolation-filters="sRGB">
                <feFlood flood-opacity="0" result="BackgroundImageFix" />
                <feBlend mode="normal" in="SourceGraphic" in2="BackgroundImageFix" result="shape" />
                <feGaussianBlur stdDeviation="16.472" result="effect1_foregroundBlur_126_9451" />
            </filter>
            <filter id="filter7_d_126_9451" x="33.0002" y="1.06836" width="62.3835" height="62.1642"
                filterUnits="userSpaceOnUse" color-interpolation-filters="sRGB">
                <feFlood flood-opacity="0" result="BackgroundImageFix" />
                <feColorMatrix in="SourceAlpha" type="matrix" values="0 0 0 0 0 0 0 0 0 0 0 0 0 0 0 0 0 0 127 0"
                    result="hardAlpha" />
                <feOffset dy="0.593585" />
                <feGaussianBlur stdDeviation="0.296792" />
                <feComposite in2="hardAlpha" operator="out" />
                <feColorMatrix type="matrix" values="0 0 0 0 0 0 0 0 0 0 0 0 0 0 0 0 0 0 0.25 0" />
                <feBlend mode="normal" in2="BackgroundImageFix" result="effect1_dropShadow_126_9451" />
                <feBlend mode="normal" in="SourceGraphic" in2="effect1_dropShadow_126_9451" result="shape" />
            </filter>
            <filter id="filter8_i_126_9451" x="33.5508" y="0.771973" width="61.2881" height="61.2876"
                filterUnits="userSpaceOnUse" color-interpolation-filters="sRGB">
                <feFlood flood-opacity="0" result="BackgroundImageFix" />
                <feBlend mode="normal" in="SourceGraphic" in2="BackgroundImageFix" result="shape" />
                <feColorMatrix in="SourceAlpha" type="matrix" values="0 0 0 0 0 0 0 0 0 0 0 0 0 0 0 0 0 0 127 0"
                    result="hardAlpha" />
                <feOffset />
                <feGaussianBlur stdDeviation="3.26472" />
                <feComposite in2="hardAlpha" operator="arithmetic" k2="-1" k3="1" />
                <feColorMatrix type="matrix"
                    values="0 0 0 0 0.901961 0 0 0 0 0.0313726 0 0 0 0 0.498039 0 0 0 0.25 0" />
                <feBlend mode="normal" in2="shape" result="effect1_innerShadow_126_9451" />
            </filter>
            <filter id="filter9_f_126_9451" x="-1.5377" y="-33.8536" width="103.48" height="98.3552"
                filterUnits="userSpaceOnUse" color-interpolation-filters="sRGB">
                <feFlood flood-opacity="0" result="BackgroundImageFix" />
                <feBlend mode="normal" in="SourceGraphic" in2="BackgroundImageFix" result="shape" />
                <feGaussianBlur stdDeviation="16.472" result="effect1_foregroundBlur_126_9451" />
            </filter>
            <filter id="filter10_f_126_9451" x="-1.5377" y="-33.8536" width="103.48" height="98.3552"
                filterUnits="userSpaceOnUse" color-interpolation-filters="sRGB">
                <feFlood flood-opacity="0" result="BackgroundImageFix" />
                <feBlend mode="normal" in="SourceGraphic" in2="BackgroundImageFix" result="shape" />
                <feGaussianBlur stdDeviation="16.472" result="effect1_foregroundBlur_126_9451" />
            </filter>
            <filter id="filter11_f_126_9451" x="-14.0768" y="-8.85313" width="104.069" height="105.628"
                filterUnits="userSpaceOnUse" color-interpolation-filters="sRGB">
                <feFlood flood-opacity="0" result="BackgroundImageFix" />
                <feBlend mode="normal" in="SourceGraphic" in2="BackgroundImageFix" result="shape" />
                <feGaussianBlur stdDeviation="16.472" result="effect1_foregroundBlur_126_9451" />
            </filter>
            <filter id="filter12_f_126_9451" x="-5.47061" y="-4.62589" width="81.7059" height="107.939"
                filterUnits="userSpaceOnUse" color-interpolation-filters="sRGB">
                <feFlood flood-opacity="0" result="BackgroundImageFix" />
                <feBlend mode="normal" in="SourceGraphic" in2="BackgroundImageFix" result="shape" />
                <feGaussianBlur stdDeviation="10.6845" result="effect1_foregroundBlur_126_9451" />
            </filter>
            <filter id="filter13_f_126_9451" x="14.2247" y="30.94" width="80.9188" height="82.4778"
                filterUnits="userSpaceOnUse" color-interpolation-filters="sRGB">
                <feFlood flood-opacity="0" result="BackgroundImageFix" />
                <feBlend mode="normal" in="SourceGraphic" in2="BackgroundImageFix" result="shape" />
                <feGaussianBlur stdDeviation="10.6845" result="effect1_foregroundBlur_126_9451" />
            </filter>
            <filter id="filter14_f_126_9451" x="7.70058" y="29.2836" width="104.069" height="105.628"
                filterUnits="userSpaceOnUse" color-interpolation-filters="sRGB">
                <feFlood flood-opacity="0" result="BackgroundImageFix" />
                <feBlend mode="normal" in="SourceGraphic" in2="BackgroundImageFix" result="shape" />
                <feGaussianBlur stdDeviation="16.472" result="effect1_foregroundBlur_126_9451" />
            </filter>
            <linearGradient id="paint0_linear_126_9451" x1="19.0598" y1="-5.8088" x2="104.211" y2="42.5167"
                gradientUnits="userSpaceOnUse">
                <stop stop-color="white" stop-opacity="0.25" />
                <stop offset="1" stop-color="white" stop-opacity="0" />
            </linearGradient>
            <linearGradient id="paint1_linear_126_9451" x1="33.5938" y1="31.5586" x2="211.88" y2="31.5586"
                gradientUnits="userSpaceOnUse">
                <stop offset="0.15" stop-color="#E41219" />
                <stop offset="0.85" stop-color="#E6087F" />
            </linearGradient>
            <linearGradient id="paint2_linear_126_9451" x1="19.0598" y1="-5.8088" x2="104.211" y2="42.5167"
                gradientUnits="userSpaceOnUse">
                <stop stop-color="white" stop-opacity="0.25" />
                <stop offset="1" stop-color="white" stop-opacity="0" />
            </linearGradient>
            <clipPath id="clip0_126_9451">
                <rect x="33.5508" y="0.771973" width="61.2876" height="61.2876" rx="30.6438" fill="white" />
            </clipPath>
            <clipPath id="clip1_126_9451">
                <rect x="33.5508" y="0.771973" width="61.2876" height="61.2876" rx="30.6438" fill="white" />
            </clipPath>
        </defs>
    </svg>


    <svg id="whatsapp" viewBox="0 0 24 24">
        <path fill-rule="evenodd" clip-rule="evenodd"
            d="M11.5979 1.00688C9.99008 1.16335 8.77768 1.5103 7.46272 2.19012C5.45528 3.228 3.8343 4.87954 2.83206 6.90819C2.44701 7.68759 2.26554 8.16532 2.06429 8.92968C1.81058 9.89304 1.73671 10.4787 1.73442 11.5445C1.73329 12.0752 1.75519 12.6511 1.78505 12.8752C2.01207 14.5789 2.54715 16.0472 3.44205 17.4218L3.74032 17.88L3.07774 19.8332C2.7133 20.9075 2.4209 21.7922 2.42794 21.7992C2.43502 21.8063 3.34648 21.5227 4.45345 21.1691C5.56046 20.8155 6.48096 20.5262 6.49908 20.5262C6.51719 20.5262 6.68808 20.6231 6.87884 20.7414C7.06959 20.8599 7.46925 21.0731 7.76698 21.2154C10.4592 22.5021 13.5368 22.6122 16.2934 21.5206C19.4168 20.2836 21.8159 17.5777 22.6722 14.3257C22.9345 13.3297 23.001 12.7837 23.001 11.6277C23.001 10.4717 22.9345 9.92573 22.6722 8.92968C21.6676 5.11469 18.6056 2.14925 14.7417 1.24942C14.0925 1.09823 13.417 1.02164 12.5973 1.00629C12.1392 0.997686 11.6895 0.997935 11.5979 1.00688ZM9.05829 5.94108C9.12725 5.9768 9.22386 6.07805 9.27303 6.16604C9.39716 6.38825 10.4095 8.82298 10.439 8.97026C10.4767 9.15867 10.2922 9.47897 9.87828 9.94369C9.44634 10.4286 9.35352 10.5843 9.39196 10.7591C9.46179 11.0764 10.4248 12.3518 11.0181 12.9126C11.9388 13.7829 13.3305 14.6094 13.9506 14.654C14.2694 14.677 14.3857 14.5869 14.8734 13.9386C15.0946 13.6446 15.3306 13.3491 15.3977 13.282C15.5584 13.1216 15.7968 13.0876 16.0642 13.187C16.4072 13.3145 18.5039 14.3341 18.6511 14.445L18.7921 14.5512L18.7688 14.9918C18.7091 16.1229 18.3118 16.7102 17.261 17.2209C16.262 17.7064 15.48 17.6931 13.949 17.1647C11.8951 16.4558 10.8049 15.7786 9.32758 14.2942C8.58838 13.5514 8.06309 12.9234 7.46226 12.0643C6.47222 10.6486 6.09254 9.5554 6.20555 8.44588C6.29616 7.55628 6.60747 6.89958 7.23619 6.27178C7.54034 5.96802 7.93833 5.84299 8.53733 5.86295C8.79146 5.87139 8.97776 5.89933 9.05829 5.94108Z"
            fill="inherit" />
    </svg>
    <svg id="wall" viewBox="0 0 1920 11486" fill="none" xmlns="http://www.w3.org/2000/svg">
        <g opacity="0.06">
            <rect width="1" height="12098" transform="translate(51 -612)" fill="white" />
            <rect width="1" height="12098" transform="translate(152 -612)" fill="white" />
            <rect width="1" height="12098" transform="translate(253 -612)" fill="white" />
            <rect width="1" height="12098" transform="translate(354 -612)" fill="white" />
            <rect width="1" height="12098" transform="translate(455 -612)" fill="white" />
            <rect width="1" height="12098" transform="translate(556 -612)" fill="white" />
            <rect width="1" height="12098" transform="translate(657 -612)" fill="white" />
            <rect width="1" height="12098" transform="translate(758 -612)" fill="white" />
            <rect width="1" height="12098" transform="translate(859 -612)" fill="white" />
            <rect width="1" height="12098" transform="translate(960 -612)" fill="white" />
            <rect width="1" height="12098" transform="translate(1061 -612)" fill="white" />
            <rect width="1" height="12098" transform="translate(1162 -612)" fill="white" />
            <rect width="1" height="12098" transform="translate(1263 -612)" fill="white" />
            <rect width="1" height="12098" transform="translate(1364 -612)" fill="white" />
            <rect width="1" height="12098" transform="translate(1465 -612)" fill="white" />
            <rect width="1" height="12098" transform="translate(1566 -612)" fill="white" />
            <rect width="1" height="12098" transform="translate(1667 -612)" fill="white" />
            <rect width="1" height="12098" transform="translate(1768 -612)" fill="white" />
            <rect width="1" height="12098" transform="translate(1869 -612)" fill="white" />
        </g>
    </svg>
</svg>